<svg width="81" height="81" viewBox="0 0 81 81" fill="none" xmlns="http://www.w3.org/2000/svg">
<path d="M28.9404 0C44.9231 0.000428824 57.8798 12.9577 57.8799 28.9404C57.8797 44.9231 44.923 57.8795 28.9404 57.8799C12.9575 57.8799 0.000230899 44.9234 0 28.9404C0.000131949 12.9574 12.9574 0 28.9404 0ZM2.02246 30.0088C2.57095 44.0692 13.8939 55.3606 27.9668 55.8604C27.4173 41.8013 16.0942 30.5084 2.02246 30.0088ZM55.8467 30.2627C42.0223 30.9316 30.9309 42.0223 30.2617 55.8467C44.088 55.1785 55.1783 44.0889 55.8467 30.2627ZM29.0801 7.96582C26.4415 18.23 18.3132 26.2903 8.01172 28.835C18.3931 31.3993 26.5656 39.5664 29.1387 49.9443C31.7773 39.6806 39.9061 31.6201 50.207 29.0752C39.8259 26.5105 31.6528 18.3438 29.0801 7.96582ZM30.251 2.03223C30.7869 15.9864 41.9375 27.2196 55.8574 27.8877C55.321 13.9328 44.1719 2.69948 30.251 2.03223ZM27.959 2.01953C13.9605 2.52068 2.68353 13.7009 2.03027 27.6602C16.0286 27.1592 27.3062 15.9788 27.959 2.01953Z" fill="#FA4838"/>
</svg>
