<svg width="80" height="80" viewBox="0 0 80 80" fill="none" xmlns="http://www.w3.org/2000/svg">
<path d="M14.8047 0.362305C14.9962 7.27227 20.6529 12.8093 27.6094 12.8096C34.4095 12.8095 39.9672 7.51849 40.3926 0.826172C40.3776 0.552773 40.3701 0.277164 40.3701 0H42.4199C42.4199 0.275198 42.4113 0.548826 42.3965 0.820312C42.819 7.5153 48.3777 12.8093 55.1797 12.8096V14.8301C48.3779 14.8303 42.8194 20.1247 42.3965 26.8193C42.4113 27.0909 42.4199 27.3644 42.4199 27.6396C42.4199 27.9146 42.4113 28.1878 42.3965 28.459C42.8053 34.9447 48.0338 40.1158 54.5439 40.4336C54.7546 40.4247 54.9668 40.4199 55.1797 40.4199V42.4502C54.9671 42.4502 54.7553 42.4444 54.5449 42.4355C48.0349 42.7528 42.8062 47.9239 42.3965 54.4092C42.4113 54.6807 42.4199 54.9542 42.4199 55.2295H40.3701C40.3701 54.9522 40.3775 54.6768 40.3926 54.4033C39.98 47.9202 34.7511 42.7518 28.2422 42.4355C28.0323 42.4444 27.8214 42.4502 27.6094 42.4502C27.3967 42.4502 27.1851 42.4444 26.9746 42.4355C20.3122 42.7604 14.9908 48.169 14.8047 54.8672C14.8076 54.9876 14.8096 55.1084 14.8096 55.2295H12.7998C12.7998 55.1143 12.8011 54.9994 12.8037 54.8848C12.6252 48.1337 7.23164 42.6893 0.500977 42.4307C0.334652 42.4362 0.167674 42.4404 0 42.4404V40.4199C0.169957 40.4199 0.339243 40.423 0.507812 40.4287C7.23482 40.1666 12.6246 34.7247 12.8037 27.9766C12.8012 27.8646 12.7998 27.7522 12.7998 27.6396C12.7998 27.5218 12.801 27.4043 12.8037 27.2871C12.622 20.3683 6.96285 14.8205 0 14.8203V12.8096C6.9627 12.8094 12.6218 7.26238 12.8037 0.34375C12.8011 0.229563 12.7998 0.114814 12.7998 0H14.8096C14.8096 0.121035 14.8076 0.241967 14.8047 0.362305ZM13.8027 33.0068C12.3021 36.8591 9.23655 39.9263 5.38574 41.4297C9.23788 42.9333 12.3045 46.0025 13.8047 49.8564C15.3033 46.0071 18.3641 42.9401 22.21 41.4346C18.3632 39.9275 15.3008 36.8581 13.8027 33.0068ZM41.3936 33.0654C39.887 36.8895 36.8356 39.9353 33.0078 41.4346C36.8365 42.933 39.8883 45.9781 41.3945 49.8027C42.9005 45.9786 45.9515 42.9332 49.7793 41.4346C45.951 39.9355 42.8992 36.8905 41.3936 33.0654ZM27.6094 14.8301C20.6571 14.8303 14.9983 20.3689 14.8047 27.2744C14.8075 27.3925 14.8096 27.5111 14.8096 27.6299C14.8096 27.7533 14.8077 27.8763 14.8047 27.999C14.9891 34.6958 20.3131 40.1079 26.9736 40.4336C27.1844 40.4247 27.3964 40.4199 27.6094 40.4199C27.822 40.4199 28.0337 40.4247 28.2441 40.4336C34.7498 40.116 39.9801 34.9461 40.3926 28.4658C40.3776 28.1924 40.3701 27.9169 40.3701 27.6396C40.3701 27.3621 40.3775 27.0863 40.3926 26.8125C39.9659 20.1235 34.406 14.8301 27.6094 14.8301ZM13.8037 5.37305C12.2985 9.23996 9.21711 12.3163 5.34668 13.8145C9.21918 15.3133 12.3022 18.3929 13.8066 22.2627C15.3147 18.3946 18.4015 15.3166 22.2754 13.8203C18.3986 12.324 15.3106 9.24456 13.8037 5.37305ZM41.3945 5.42578C39.8799 9.2728 36.8021 12.331 32.9424 13.8203C36.8003 15.31 39.8783 18.3678 41.3936 22.2129C42.908 18.3668 45.9861 15.3089 49.8447 13.8193C45.986 12.3297 42.9087 9.27219 41.3945 5.42578Z" fill="#FA4838"/>
</svg>
