<svg width="81" height="81" viewBox="0 0 81 81" fill="none" xmlns="http://www.w3.org/2000/svg">
<path d="M28.9697 0C44.9693 0 57.9403 12.9702 57.9404 28.9697C57.9404 44.9694 44.9694 57.9404 28.9697 57.9404C12.9702 57.9402 0 44.9693 0 28.9697C0.000147413 12.9703 12.9703 0.00021441 28.9697 0ZM27.9678 2.01953C13.5372 2.54679 2.00014 14.4103 2 28.9697C2 43.8647 14.0748 55.9402 28.9697 55.9404C43.53 55.9404 55.3938 44.4015 55.9199 29.9697H43.7158C43.2016 37.6772 36.7879 43.7694 28.9502 43.7695C20.7765 43.7694 14.1504 37.1435 14.1504 28.9697C14.1506 21.1318 20.2433 14.7179 27.9512 14.2041L27.9678 2.01953ZM28.9502 16.1699C21.8812 16.17 16.1506 21.9007 16.1504 28.9697C16.1504 36.0389 21.881 41.7694 28.9502 41.7695C36.0193 41.7694 41.75 36.0389 41.75 28.9697C41.7498 21.9007 36.0192 16.1701 28.9502 16.1699ZM29.9512 14.2041C37.3274 14.6969 43.2235 20.5933 43.7158 27.9697H55.9199C55.4057 13.8692 44.0686 2.53246 29.9678 2.01953L29.9512 14.2041Z" fill="#FA4838"/>
</svg>
